<svg xmlns="http://www.w3.org/2000/svg" viewBox="0 0 1280 380" width="1280" height="380">
	<defs>
		<pattern id="hero-grid" width="40" height="40" patternUnits="userSpaceOnUse">
			<path d="M 40 0 L 0 0 0 40" fill="none" stroke="#1E293B" stroke-width="1"/>
		</pattern>
	</defs>
	<rect width="1280" height="380" fill="#0F172A" />
	<rect width="1280" height="380" fill="url(#hero-grid)" />
	<text x="80" y="90" fill="#38BDF8" font-size="13" font-family="system-ui, -apple-system, sans-serif" font-weight="700" letter-spacing="2">GO ANALYTICS BACKEND</text>
	<text x="80" y="145" fill="#F8FAFC" font-size="46" font-family="system-ui, -apple-system, sans-serif" font-weight="800" letter-spacing="-1">pg-analytics-service</text>
	<text x="80" y="195" fill="#94A3B8" font-size="18" font-family="system-ui, -apple-system, sans-serif" font-weight="400">PostgreSQL-backed aggregations, reporting endpoints,</text>
	<text x="80" y="225" fill="#94A3B8" font-size="18" font-family="system-ui, -apple-system, sans-serif" font-weight="400">recomputation workflows, and Redis-assisted result caching.</text>
	<g transform="translate(80, 275)">
		<rect x="0" y="0" width="60" height="32" fill="#1E293B" stroke="#334155" stroke-width="1" rx="6" />
		<text x="30" y="21" fill="#E2E8F0" font-size="13" font-family="system-ui, -apple-system, sans-serif" font-weight="600" text-anchor="middle">Go</text>
		<rect x="70" y="0" width="115" height="32" fill="#1E293B" stroke="#334155" stroke-width="1" rx="6" />
		<text x="127.5" y="21" fill="#F59E0B" font-size="13" font-family="system-ui, -apple-system, sans-serif" font-weight="600" text-anchor="middle">PostgreSQL</text>

		<rect x="195" y="0" width="75" height="32" fill="#1E293B" stroke="#334155" stroke-width="1" rx="6" />
		<text x="232.5" y="21" fill="#A855F7" font-size="13" font-family="system-ui, -apple-system, sans-serif" font-weight="600" text-anchor="middle">Redis</text>

		<rect x="280" y="0" width="85" height="32" fill="#1E293B" stroke="#334155" stroke-width="1" rx="6" />
		<text x="322.5" y="21" fill="#E2E8F0" font-size="13" font-family="system-ui, -apple-system, sans-serif" font-weight="600" text-anchor="middle">Docker</text>

		<rect x="375" y="0" width="90" height="32" fill="#1E293B" stroke="#334155" stroke-width="1" rx="6" />
		<text x="420" y="21" fill="#10B981" font-size="13" font-family="system-ui, -apple-system, sans-serif" font-weight="600" text-anchor="middle">Reports</text>

		<rect x="475" y="0" width="60" height="32" fill="#1E293B" stroke="#334155" stroke-width="1" rx="6" />
		<text x="505" y="21" fill="#E2E8F0" font-size="13" font-family="system-ui, -apple-system, sans-serif" font-weight="600" text-anchor="middle">SQL</text>
	</g>
	<g transform="translate(740, 50)">
		<rect x="0" y="0" width="480" height="280" fill="#0B1120" stroke="#334155" stroke-width="1" rx="16" />
		<rect x="0" y="0" width="480" height="44" fill="#1E293B" rx="16" />
		<path d="M 0 44 L 480 44" stroke="#334155" stroke-width="1" />
		<circle cx="24" cy="22" r="5" fill="#EF4444" />
		<circle cx="40" cy="22" r="5" fill="#F59E0B" />
		<circle cx="56" cy="22" r="5" fill="#10B981" />
		<text x="240" y="26" fill="#94A3B8" font-size="12" font-family="system-ui, -apple-system, sans-serif" font-weight="600" text-anchor="middle" letter-spacing="1">SYSTEM SNAPSHOT</text>

		<path d="M 120 115 L 120 160" stroke="#475569" stroke-width="1.5" stroke-dasharray="3,3" />
		<path d="M 120 160 L 120 205" stroke="#475569" stroke-width="1.5" stroke-dasharray="3,3" />
		<path d="M 190 100 L 290 100" stroke="#475569" stroke-width="1.5" stroke-dasharray="3,3" />
		<path d="M 190 160 L 290 160" stroke="#475569" stroke-width="1.5" stroke-dasharray="3,3" />
		<path d="M 190 220 L 290 220" stroke="#475569" stroke-width="1.5" stroke-dasharray="3,3" />

		<g transform="translate(50, 80)">
			<rect width="140" height="40" fill="#0F172A" stroke="#334155" stroke-width="1" rx="6" />
			<rect width="4" height="40" fill="#38BDF8" rx="2" />
			<text x="70" y="25" fill="#F8FAFC" font-size="13" font-family="system-ui, -apple-system, sans-serif" font-weight="600" text-anchor="middle">API</text>
		</g>

		<g transform="translate(50, 140)">
			<rect width="140" height="40" fill="#0F172A" stroke="#334155" stroke-width="1" rx="6" />
			<rect width="4" height="40" fill="#10B981" rx="2" />
			<text x="70" y="25" fill="#F8FAFC" font-size="13" font-family="system-ui, -apple-system, sans-serif" font-weight="600" text-anchor="middle">Reports</text>
		</g>

		<g transform="translate(50, 200)">
			<rect width="140" height="40" fill="#0F172A" stroke="#334155" stroke-width="1" rx="6" />
			<rect width="4" height="40" fill="#F97316" rx="2" />
			<text x="70" y="25" fill="#F8FAFC" font-size="13" font-family="system-ui, -apple-system, sans-serif" font-weight="600" text-anchor="middle">Recompute</text>
		</g>

		<g transform="translate(290, 80)">
			<rect width="140" height="40" fill="#0F172A" stroke="#334155" stroke-width="1" rx="6" />
			<rect width="4" height="40" fill="#A855F7" rx="2" />
			<text x="70" y="25" fill="#F8FAFC" font-size="13" font-family="system-ui, -apple-system, sans-serif" font-weight="600" text-anchor="middle">Redis</text>
		</g>

		<g transform="translate(290, 140)">
			<rect width="140" height="40" fill="#0F172A" stroke="#334155" stroke-width="1" rx="6" />
			<rect width="4" height="40" fill="#F59E0B" rx="2" />
			<text x="70" y="25" fill="#F8FAFC" font-size="13" font-family="system-ui, -apple-system, sans-serif" font-weight="600" text-anchor="middle">PostgreSQL</text>
		</g>

		<g transform="translate(290, 200)">
			<rect width="140" height="40" fill="#0F172A" stroke="#334155" stroke-width="1" rx="6" />
			<rect width="4" height="40" fill="#64748B" rx="2" />
			<text x="70" y="25" fill="#F8FAFC" font-size="13" font-family="system-ui, -apple-system, sans-serif" font-weight="600" text-anchor="middle">Audit</text>
		</g>
	</g>
</svg>
