<svg xmlns="http://www.w3.org/2000/svg" viewBox="0 0 1280 360" width="1280" height="360">
	<defs>
		<pattern id="top-grid" width="40" height="40" patternUnits="userSpaceOnUse">
			<path d="M 40 0 L 0 0 0 40" fill="none" stroke="#1E293B" stroke-width="1"/>
		</pattern>
		<marker id="arrow-top" viewBox="0 0 10 10" refX="9" refY="5" markerWidth="6" markerHeight="6" orient="auto">
			<path d="M 0 1 L 9 5 L 0 9 z" fill="#64748B" />
		</marker>
	</defs>
	<rect width="1280" height="360" fill="#0F172A" />
	<rect width="1280" height="360" fill="url(#top-grid)" />
	<text x="80" y="50" fill="#94A3B8" font-size="12" font-family="system-ui, -apple-system, sans-serif" font-weight="700" letter-spacing="1">PLATFORM TOPOLOGY</text>
	<path d="M 280 170 L 430 110" stroke="#64748B" stroke-width="2" marker-end="url(#arrow-top)" />
	<path d="M 280 170 L 430 230" stroke="#64748B" stroke-width="2" marker-end="url(#arrow-top)" />
	<path d="M 600 110 L 750 110" stroke="#64748B" stroke-width="2" marker-end="url(#arrow-top)" />
	<path d="M 600 110 L 750 230" stroke="#64748B" stroke-width="2" marker-end="url(#arrow-top)" />
	<path d="M 600 230 L 750 230" stroke="#64748B" stroke-width="2" marker-end="url(#arrow-top)" />
	<path d="M 600 230 L 750 110" stroke="#64748B" stroke-width="2" marker-end="url(#arrow-top)" />
	<path d="M 600 230 L 1070 230" stroke="#64748B" stroke-width="2" marker-end="url(#arrow-top)" />
	<text x="350" y="130" fill="#94A3B8" font-size="11" font-family="system-ui, -apple-system, sans-serif" text-anchor="middle">Serves</text>
	<text x="350" y="220" fill="#94A3B8" font-size="11" font-family="system-ui, -apple-system, sans-serif" text-anchor="middle">Triggers</text>
	<text x="675" y="100" fill="#94A3B8" font-size="11" font-family="system-ui, -apple-system, sans-serif" text-anchor="middle">Caches</text>
	<text x="675" y="250" fill="#94A3B8" font-size="11" font-family="system-ui, -apple-system, sans-serif" text-anchor="middle">Queries</text>
	<g transform="translate(120, 140)">
		<rect width="160" height="60" fill="#1E293B" stroke="#334155" stroke-width="1" rx="8" />
		<rect width="6" height="60" fill="#38BDF8" rx="3" />
		<text x="80" y="35" fill="#F8FAFC" font-size="14" font-family="system-ui, -apple-system, sans-serif" font-weight="600" text-anchor="middle">API</text>
	</g>
	<g transform="translate(440, 80)">
		<rect width="160" height="60" fill="#1E293B" stroke="#334155" stroke-width="1" rx="8" />
		<rect width="6" height="60" fill="#10B981" rx="3" />
		<text x="80" y="35" fill="#F8FAFC" font-size="14" font-family="system-ui, -apple-system, sans-serif" font-weight="600" text-anchor="middle">Reports</text>
	</g>
	<g transform="translate(440, 200)">
		<rect width="160" height="60" fill="#1E293B" stroke="#334155" stroke-width="1" rx="8" />
		<rect width="6" height="60" fill="#F97316" rx="3" />
		<text x="80" y="35" fill="#F8FAFC" font-size="14" font-family="system-ui, -apple-system, sans-serif" font-weight="600" text-anchor="middle">Recompute</text>
	</g>
	<g transform="translate(760, 80)">
		<rect width="160" height="60" fill="#1E293B" stroke="#334155" stroke-width="1" rx="8" />
		<rect width="6" height="60" fill="#A855F7" rx="3" />
		<text x="80" y="35" fill="#F8FAFC" font-size="14" font-family="system-ui, -apple-system, sans-serif" font-weight="600" text-anchor="middle">Redis</text>
	</g>
	<g transform="translate(760, 200)">
		<rect width="160" height="60" fill="#1E293B" stroke="#334155" stroke-width="1" rx="8" />
		<rect width="6" height="60" fill="#F59E0B" rx="3" />
		<text x="80" y="35" fill="#F8FAFC" font-size="14" font-family="system-ui, -apple-system, sans-serif" font-weight="600" text-anchor="middle">PostgreSQL</text>
	</g>
	<g transform="translate(1080, 200)">
		<rect width="160" height="60" fill="#1E293B" stroke="#334155" stroke-width="1" rx="8" />
		<rect width="6" height="60" fill="#64748B" rx="3" />
		<text x="80" y="35" fill="#F8FAFC" font-size="14" font-family="system-ui, -apple-system, sans-serif" font-weight="600" text-anchor="middle">Audit</text>
	</g>
</svg>
